<svg xmlns="http://www.w3.org/2000/svg" width="1700" viewBox="0 0 1275 391.499984" height="522" preserveAspectRatio="xMidYMid meet"><defs><clipPath id="f11ca8a72b"><path d="M 0.8125 0 L 67.425781 0 L 67.425781 391 L 0.8125 391 Z M 0.8125 0 "/></clipPath><clipPath id="2a2564edef"><path d="M 83.300781 0 L 146.351562 0 L 146.351562 391 L 83.300781 391 Z M 83.300781 0 "/></clipPath><clipPath id="3365dd72c9"><path d="M 166.003906 0 L 224.152344 0 L 224.152344 391 L 166.003906 391 Z M 166.003906 0 "/></clipPath><clipPath id="cfe99572b2"><path d="M 250.058594 0 L 304.199219 0 L 304.199219 391 L 250.058594 391 Z M 250.058594 0 "/></clipPath><clipPath id="3b4fd2f599"><path d="M 332.996094 0 L 382.675781 0 L 382.675781 391 L 332.996094 391 Z M 332.996094 0 "/></clipPath><clipPath id="b8f10f8a6b"><path d="M 415.484375 0 L 461.601562 0 L 461.601562 391 L 415.484375 391 Z M 415.484375 0 "/></clipPath><clipPath id="aa1be26ccf"><path d="M 498.863281 0 L 540.96875 0 L 540.96875 391 L 498.863281 391 Z M 498.863281 0 "/></clipPath><clipPath id="155d1dc463"><path d="M 581.203125 0 L 618.851562 0 L 618.851562 391 L 581.203125 391 Z M 581.203125 0 "/></clipPath><clipPath id="c62baff15a"><path d="M 665.027344 0 L 698.667969 0 L 698.667969 391 L 665.027344 391 Z M 665.027344 0 "/></clipPath><clipPath id="43ba6a5128"><path d="M 745.363281 0 L 776.773438 0 L 776.773438 391 L 745.363281 391 Z M 745.363281 0 "/></clipPath><clipPath id="58d13b806b"><path d="M 830.523438 0 L 856.589844 0 L 856.589844 391 L 830.523438 391 Z M 830.523438 0 "/></clipPath><clipPath id="d3aa636f5e"><path d="M 913.902344 0 L 934.621094 0 L 934.621094 391 L 913.902344 391 Z M 913.902344 0 "/></clipPath><clipPath id="d4a3e970b7"><path d="M 996.835938 0 L 1013.101562 0 L 1013.101562 391 L 996.835938 391 Z M 996.835938 0 "/></clipPath><clipPath id="e547fe2c75"><path d="M 1080.214844 0 L 1092.46875 0 L 1092.46875 391 L 1080.214844 391 Z M 1080.214844 0 "/></clipPath><clipPath id="a7a5e85c3b"><path d="M 1163.152344 0 L 1170.503906 0 L 1170.503906 391 L 1163.152344 391 Z M 1163.152344 0 "/></clipPath><clipPath id="b5c7b298a6"><path d="M 1245.167969 0 L 1251.3125 0 L 1251.3125 391 L 1245.167969 391 Z M 1245.167969 0 "/></clipPath><clipPath id="fd6de148dc"><path d="M 233.429688 126.554688 L 363.027344 126.554688 L 363.027344 315 L 233.429688 315 Z M 233.429688 126.554688 "/></clipPath><clipPath id="58a6cf1c92"><path d="M 157.511719 81.800781 L 438.933594 81.800781 L 438.933594 176.472656 L 157.511719 176.472656 Z M 157.511719 81.800781 "/></clipPath><clipPath id="25a059f4e7"><path d="M 437.902344 81.796875 L 551.398438 81.796875 L 551.398438 315 L 437.902344 315 Z M 437.902344 81.796875 "/></clipPath><clipPath id="9665f49261"><path d="M 692.175781 81.796875 L 813.042969 81.796875 L 813.042969 315.078125 L 692.175781 315.078125 Z M 692.175781 81.796875 "/></clipPath><clipPath id="741471f74d"><path d="M 532 81 L 654 81 L 654 316 L 532 316 Z M 532 81 "/></clipPath><clipPath id="0bb8a42340"><path d="M 604.210938 81.796875 L 653.144531 298.84375 L 581.140625 315.078125 L 532.207031 98.03125 Z M 604.210938 81.796875 "/></clipPath><clipPath id="c9f843348f"><path d="M 600 81 L 717 81 L 717 315 L 600 315 Z M 600 81 "/></clipPath><clipPath id="be25bc3993"><path d="M 716.6875 97.164062 L 661.625 314.722656 L 600.917969 299.359375 L 655.984375 81.800781 Z M 716.6875 97.164062 "/></clipPath><clipPath id="88a6f4a68f"><path d="M 581.453125 252.460938 L 661.640625 252.460938 L 661.640625 315.078125 L 581.453125 315.078125 Z M 581.453125 252.460938 "/></clipPath><clipPath id="dbdd17c171"><path d="M 550.648438 81.796875 L 604.074219 81.796875 L 604.074219 144.175781 L 550.648438 144.175781 Z M 550.648438 81.796875 "/></clipPath><clipPath id="73ac91a040"><path d="M 656.015625 81.796875 L 692.925781 81.796875 L 692.925781 144.417969 L 656.015625 144.417969 Z M 656.015625 81.796875 "/></clipPath></defs><g id="d60e531192"><g clip-rule="nonzero" clip-path="url(#f11ca8a72b)"><path style=" stroke:none;fill-rule:nonzero;fill:#1990ff;fill-opacity:1;" d="M 0.8125 0 L 67.425781 0 L 67.425781 391.097656 L 0.8125 391.097656 Z M 0.8125 0 "/></g><g clip-rule="nonzero" clip-path="url(#2a2564edef)"><path style=" stroke:none;fill-rule:nonzero;fill:#1990ff;fill-opacity:1;" d="M 83.300781 0 L 146.351562 0 L 146.351562 391.105469 L 83.300781 391.105469 Z M 83.300781 0 "/></g><g clip-rule="nonzero" clip-path="url(#3365dd72c9)"><path style=" stroke:none;fill-rule:nonzero;fill:#1990ff;fill-opacity:1;" d="M 166.003906 0 L 224.152344 0 L 224.152344 390.910156 L 166.003906 390.910156 Z M 166.003906 0 "/></g><g clip-rule="nonzero" clip-path="url(#cfe99572b2)"><path style=" stroke:none;fill-rule:nonzero;fill:#1990ff;fill-opacity:1;" d="M 250.058594 0 L 304.199219 0 L 304.199219 391.019531 L 250.058594 391.019531 Z M 250.058594 0 "/></g><g clip-rule="nonzero" clip-path="url(#3b4fd2f599)"><path style=" stroke:none;fill-rule:nonzero;fill:#1990ff;fill-opacity:1;" d="M 332.996094 0 L 382.675781 0 L 382.675781 391.050781 L 332.996094 391.050781 Z M 332.996094 0 "/></g><g clip-rule="nonzero" clip-path="url(#b8f10f8a6b)"><path style=" stroke:none;fill-rule:nonzero;fill:#1990ff;fill-opacity:1;" d="M 415.484375 0 L 461.601562 0 L 461.601562 390.917969 L 415.484375 390.917969 Z M 415.484375 0 "/></g><g clip-rule="nonzero" clip-path="url(#aa1be26ccf)"><path style=" stroke:none;fill-rule:nonzero;fill:#1990ff;fill-opacity:1;" d="M 498.863281 0 L 540.96875 0 L 540.96875 390.972656 L 498.863281 390.972656 Z M 498.863281 0 "/></g><g clip-rule="nonzero" clip-path="url(#155d1dc463)"><path style=" stroke:none;fill-rule:nonzero;fill:#1990ff;fill-opacity:1;" d="M 581.203125 0 L 618.851562 0 L 618.851562 391.074219 L 581.203125 391.074219 Z M 581.203125 0 "/></g><g clip-rule="nonzero" clip-path="url(#c62baff15a)"><path style=" stroke:none;fill-rule:nonzero;fill:#1990ff;fill-opacity:1;" d="M 665.027344 0 L 698.667969 0 L 698.667969 390.945312 L 665.027344 390.945312 Z M 665.027344 0 "/></g><g clip-rule="nonzero" clip-path="url(#43ba6a5128)"><path style=" stroke:none;fill-rule:nonzero;fill:#1990ff;fill-opacity:1;" d="M 745.363281 0 L 776.773438 0 L 776.773438 390.945312 L 745.363281 390.945312 Z M 745.363281 0 "/></g><g clip-rule="nonzero" clip-path="url(#58d13b806b)"><path style=" stroke:none;fill-rule:nonzero;fill:#1990ff;fill-opacity:1;" d="M 830.523438 0 L 856.589844 0 L 856.589844 390.992188 L 830.523438 390.992188 Z M 830.523438 0 "/></g><g clip-rule="nonzero" clip-path="url(#d3aa636f5e)"><path style=" stroke:none;fill-rule:nonzero;fill:#1990ff;fill-opacity:1;" d="M 913.902344 0 L 934.621094 0 L 934.621094 390.992188 L 913.902344 390.992188 Z M 913.902344 0 "/></g><g clip-rule="nonzero" clip-path="url(#d4a3e970b7)"><path style=" stroke:none;fill-rule:nonzero;fill:#1990ff;fill-opacity:1;" d="M 996.835938 0 L 1013.101562 0 L 1013.101562 391.015625 L 996.835938 391.015625 Z M 996.835938 0 "/></g><g clip-rule="nonzero" clip-path="url(#e547fe2c75)"><path style=" stroke:none;fill-rule:nonzero;fill:#1990ff;fill-opacity:1;" d="M 1080.214844 0 L 1092.46875 0 L 1092.46875 390.992188 L 1080.214844 390.992188 Z M 1080.214844 0 "/></g><g clip-rule="nonzero" clip-path="url(#a7a5e85c3b)"><path style=" stroke:none;fill-rule:nonzero;fill:#1990ff;fill-opacity:1;" d="M 1163.152344 0 L 1170.5 0 L 1170.5 391.007812 L 1163.152344 391.007812 Z M 1163.152344 0 "/></g><g clip-rule="nonzero" clip-path="url(#b5c7b298a6)"><path style=" stroke:none;fill-rule:nonzero;fill:#1990ff;fill-opacity:1;" d="M 1245.167969 0 L 1251.3125 0 L 1251.3125 391.007812 L 1245.167969 391.007812 Z M 1245.167969 0 "/></g><g clip-rule="nonzero" clip-path="url(#fd6de148dc)"><path style=" stroke:none;fill-rule:nonzero;fill:#ffffff;fill-opacity:1;" d="M 233.429688 126.554688 L 363.027344 126.554688 L 363.027344 314.875 L 233.429688 314.875 Z M 233.429688 126.554688 "/></g><g clip-rule="nonzero" clip-path="url(#58a6cf1c92)"><path style=" stroke:none;fill-rule:nonzero;fill:#ffffff;fill-opacity:1;" d="M 438.933594 81.800781 L 438.933594 176.472656 L 157.507812 176.472656 L 157.507812 81.800781 Z M 438.933594 81.800781 "/></g><g clip-rule="nonzero" clip-path="url(#25a059f4e7)"><path style=" stroke:none;fill-rule:nonzero;fill:#ffffff;fill-opacity:1;" d="M 551.398438 81.796875 L 551.398438 314.992188 L 437.902344 314.992188 L 437.902344 81.796875 Z M 551.398438 81.796875 "/></g><g clip-rule="nonzero" clip-path="url(#9665f49261)"><path style=" stroke:none;fill-rule:nonzero;fill:#ffffff;fill-opacity:1;" d="M 813.042969 81.796875 L 813.042969 315.03125 L 692.175781 315.03125 L 692.175781 81.796875 Z M 813.042969 81.796875 "/></g><g clip-rule="nonzero" clip-path="url(#741471f74d)"><g clip-rule="nonzero" clip-path="url(#0bb8a42340)"><path style=" stroke:none;fill-rule:nonzero;fill:#ffffff;fill-opacity:1;" d="M 604.210938 81.796875 L 653.164062 298.9375 L 581.160156 315.171875 L 532.207031 98.03125 Z M 604.210938 81.796875 "/></g></g><g clip-rule="nonzero" clip-path="url(#c9f843348f)"><g clip-rule="nonzero" clip-path="url(#be25bc3993)"><path style=" stroke:none;fill-rule:nonzero;fill:#ffffff;fill-opacity:1;" d="M 716.6875 97.164062 L 661.652344 314.613281 L 600.949219 299.25 L 655.984375 81.800781 Z M 716.6875 97.164062 "/></g></g><g clip-rule="nonzero" clip-path="url(#88a6f4a68f)"><path style=" stroke:none;fill-rule:nonzero;fill:#ffffff;fill-opacity:1;" d="M 581.453125 252.460938 L 661.683594 252.460938 L 661.683594 315.078125 L 581.453125 315.078125 Z M 581.453125 252.460938 "/></g><g clip-rule="nonzero" clip-path="url(#dbdd17c171)"><path style=" stroke:none;fill-rule:nonzero;fill:#ffffff;fill-opacity:1;" d="M 550.648438 81.796875 L 604.074219 81.796875 L 604.074219 144.195312 L 550.648438 144.195312 Z M 550.648438 81.796875 "/></g><g clip-rule="nonzero" clip-path="url(#73ac91a040)"><path style=" stroke:none;fill-rule:nonzero;fill:#ffffff;fill-opacity:1;" d="M 656.015625 81.796875 L 692.925781 81.796875 L 692.925781 144.378906 L 656.015625 144.378906 Z M 656.015625 81.796875 "/></g></g></svg>
